<?xml version="1.0" encoding="UTF-8"?>
<svg id="_Слой_1" data-name="Слой 1" xmlns="http://www.w3.org/2000/svg" viewBox="0 0 1957.67 1815.04">
  <defs>
    <style>
      .cls-1 {
        fill: #53524b;
      }

      .cls-2 {
        fill: #db3404;
      }

      .cls-3 {
        fill: #939183;
      }

      .cls-4 {
        fill: #f1ae41;
      }

      .cls-5 {
        fill: #110f13;
      }
    </style>
  </defs>
  <path class="cls-3" d="m880.58,1813.04c-42.22-2.52-82.93-7.67-124.27-13.75-38.28-5.64-75.48-14.52-112.36-25.13-68.5-19.71-131.98-49.99-190.65-90.94-70.63-49.3-120.81-113.9-144.67-196.31-16.26-56.16-14.84-114.32-4.34-172.06,2.85-15.66,5.04-31.34,9.16-46.83,5.19-19.52-3.48-36.56-13.86-52.44-35.11-53.69-53.47-136.24-58.61-187.33-5.83-72.01,19.2-146.74,50.62-211.6,11.8-24.37,25.94-49.25,23.38-79.2-2.17-25.33-11.98-32.99-36.52-23.74-38.79,14.62-41.73,14.54-59.2-22.57-10.21-21.7-24.28-39.25-41.01-55.7-37.28-36.65-74.24-73.62-110.95-110.83-32.91-33.37-57.46-73.48-65.08-118.9-5.03-29.99-2.63-66.68,19.67-112.15,6.81-13.88,12.74-28.74,22.2-39.34,22.61-25.3,40.2-54.94,66.73-76.87,24.49-20.25,36.71-49.98,55.93-74.33,27.22-34.49,53.68-70.78,96.56-86.78,48.52-18.1,97.79-19.9,148.17-2.6,46.06,15.81,113.78,52.1,128.69,62.38,10.86,7.49,32.23,28.12,66.97,38.78,34.9,10.71,72.6,1.85,109.64-5.33,27.9-5.4,57.08-11.08,86.76-10.78,116.61,1.15,233.24,1.16,349.84-.06,25.22-.26,49.4,5.06,72.71,10.64,40.79,9.75,47.82,17.73,102.68,16.59,17.86-.37,53.34-23.92,66.52-35.26,50.49-43.42,110.28-71.57,172.88-85.17,63.21-13.73,126.96-2.52,177.77,47.4,27.87,27.38,46.76,60.58,69.32,91.52,16.4,22.49,39.52,39.93,58.18,60.93,36.86,41.47,67.34,87.66,80.75,141.77,6.96,28.1,3.07,58.22-7.6,86.61-14.23,37.89-36.22,70.34-64.76,98.71-30.42,30.24-60.82,60.5-90.97,91.01-20,20.24-62.66,77.43-67.09,83.27-14.16,18.67-29.44,24.18-50.51,9.11-8.9-6.36-21.89-8.52-32.39-1.67-11.05,7.21-7.59,19.66-5.9,29.65,5.38,31.86,24.02,58.53,36.08,87.81,19.08,46.32,44.15,101.53,45.78,180.92.96,47.13-9.65,93.7-27.11,137.9-11.73,29.7-27.24,56.94-42.87,84.52-9.35,16.49-8.01,37.45-2.02,55.02,6.29,18.46,8.43,37.83,11.72,56.26,5.11,28.57,4.47,59.13.62,88.1-5.14,38.63-16.19,76.71-34.22,111.48-26.17,50.45-61.53,92.77-107.73,127.96-31.92,24.32-66.17,43.91-100.52,63-29.18,16.22-62.37,26.03-94.69,35.61-52.05,15.42-105.93,22.92-159.06,33.69-60.78,12.31-244.44,9.19-280.34,7.04Zm752.18-1177.1c14.13,20.94,29.35,41.17,51.21,55.24,12.11,7.8,21.03,6.46,27.69-6.93,24.12-48.46,61.02-86.08,102.49-119.65,32-25.9,60.22-55.09,82.33-90.01,26.68-42.14,36.59-86.8,24.24-136.19-10.04-40.11-30.21-74.07-57.18-104.65-36.75-41.67-73.75-83.04-104.99-129.31-43.75-64.81-106.68-84.36-180.88-70.21-62.14,11.84-117.93,39.13-168.11,77.6-42.78,32.8-89.37,45.9-143.29,33.54-31.19-7.15-63.39-10.2-95.28-13.93-101.5-11.88-203.44-8.23-305.22-6.78-56.22.8-112.75,3.87-167.61,17.07-57.53,13.84-108.09,2.82-155.64-31.49-48.11-34.71-99.88-62.43-159.14-73.77-79.8-15.27-145.69,3.94-192.54,74.48-19.6,29.51-38.76,59.73-64.86,84.2-24.63,23.09-45.74,48.97-63.86,77.23-42.78,66.69-42.78,134.9-4.34,203.18,18.32,32.54,45.44,57.77,74.12,81.18,41.25,33.67,78.95,70.51,105.55,117.31,13.93,24.51,20.66,25.58,43.16,9.15,16.71-12.2,27.68-29.68,42.76-46.07,5.52,15.65,10.09,28.78,14.78,41.88,10.77,30.07,12.82,60-.29,90.08-11.77,26.99-21.63,54.91-34.79,81.19-40.15,80.22-46.85,163.96-28.24,250.43,9.57,44.45,32.37,83.52,54.32,122.64,9.62,17.15,12.52,33.28,7.92,53.11-13.89,59.91-15.07,121.28-9.2,181.96,6.74,69.67,47.39,123.24,96.46,169.24,83.23,78.02,185.84,118.23,295.72,140.27,144.43,28.97,290.06,29.79,435.99,11.97,99.94-12.21,195.69-38.84,284.81-86.23,91.61-48.7,157.73-119.64,182.62-222.86,16.73-69.35,6.73-138.57-7.76-207.07-2.59-12.24-.89-21.68,4.83-32.29,18.08-33.55,38.8-65.79,50.91-102.37,36.5-110.21,18.93-214.96-36.45-313.54-34.15-60.79-33.78-118.82-2.23-179.61Z"/>
  <path class="cls-5" d="m1632.76,635.94c-31.56,60.79-31.92,118.82,2.23,179.61,55.38,98.58,72.95,203.34,36.45,313.54-12.11,36.58-32.83,68.82-50.91,102.37-5.71,10.6-7.42,20.04-4.83,32.29,14.49,68.49,24.48,137.72,7.76,207.07-24.89,103.21-91.02,174.15-182.62,222.86-89.12,47.38-184.86,74.02-284.81,86.23-145.93,17.83-291.56,17.01-435.99-11.97-109.88-22.04-212.49-62.24-295.72-140.27-49.07-46-89.72-99.57-96.46-169.24-5.87-60.68-4.69-122.05,9.2-181.96,4.6-19.83,1.7-35.96-7.92-53.11-21.95-39.12-44.75-78.19-54.32-122.64-18.61-86.47-11.91-170.21,28.24-250.43,13.15-26.28,23.02-54.19,34.79-81.19,13.11-30.08,11.07-60.01.29-90.08-4.69-13.1-9.27-26.23-14.78-41.88-15.08,16.39-26.04,33.87-42.76,46.07-22.51,16.43-29.24,15.36-43.16-9.15-26.59-46.8-64.3-83.64-105.55-117.31-28.68-23.41-55.8-48.65-74.12-81.18-38.44-68.28-38.44-136.48,4.34-203.18,18.13-28.26,39.23-54.14,63.86-77.23,26.1-24.47,45.26-54.68,64.86-84.2,46.85-70.54,112.74-89.76,192.54-74.48,59.25,11.34,111.03,39.06,159.14,73.77,47.55,34.31,98.11,45.33,155.64,31.49,54.86-13.2,111.4-16.27,167.61-17.07,101.79-1.45,203.73-5.11,305.22,6.78,31.88,3.73,64.09,6.78,95.28,13.93,53.92,12.36,100.5-.74,143.29-33.54,50.18-38.47,105.97-65.76,168.11-77.6,74.2-14.14,137.13,5.4,180.88,70.21,31.24,46.27,68.24,87.64,104.99,129.31,26.97,30.58,47.14,64.55,57.18,104.65,12.36,49.38,2.45,94.05-24.24,136.19-22.11,34.92-50.34,64.11-82.33,90.01-41.47,33.57-78.37,71.19-102.49,119.65-6.67,13.39-15.59,14.73-27.69,6.93-21.85-14.07-37.07-34.3-51.21-55.24Zm-441.01,308.02c-1.43-1.4-2.86-2.8-4.28-4.21-11.32-23.29-32.99-36.27-51.91-51.95-7.48-6.2-13.17-2.56-18.64,3.87-11.81,13.87-25.41,25.73-41.83,33.95-4.54,2.27-9.49,7.49-14.49,3.36-4.74-3.91-1.58-9.98-.41-15.11,5.27-23.23,1.77-31.87-14.05-34.56-23.66-4.04-44.11,7.33-47.58,25.82-14.19,75.52,10.61,134.86,72.56,179.95,48.13,35.02,100.77,63.08,148.17,99.37,52.94,40.53,98.92,85.7,123.51,149.32,2.96,7.65,4.71,17.27,14.77,20.21-.49,6.72-.97,13.44-1.46,20.16-22.66-25.39-42.77-53.23-70.81-73.44-5.81-4.19-11.52-12.58-18.68-8.47-7.05,4.04-3.3,13.69-2.34,20.5,6.93,48.85,14.62,97.59,21.76,146.42,4.85,33.15,10.08,65.95,29.35,94.75,16.69,24.93,49.38,39.55,76.43,32.95,27.9-6.81,49.8-30.55,52.12-56.49,5.18-5.58,7.47-12.34,9.24-19.69,8.08-33.4,12.27-67.25,11.24-101.56-4.12-136.7-39.79-265.45-98.23-388.49-44.6-93.9-102.55-177.11-187.07-239.94-123.68-91.95-267.52-95.24-394.46-8.09-49.75,34.15-90.7,77.48-124.84,126.77-79.74,115.11-132.16,242.19-154.65,380.15-13.46,82.55-24.22,166.5,5.77,248.71,6.07,36.57,32.58,60.36,66.31,59.49,39.5-1.03,65.91-26.73,79.25-74.54,19.42-69.6,22.22-141.88,35.62-212.43.59-3.13,1.45-7.98-1.92-8.78-3.32-.78-7.91.84-11.07,2.8-24.73,15.37-43.53,37.14-62.28,58.87-5.56,6.44-9.01,15.1-19.2,15.77,2.17-9.11,4.35-18.23,6.52-27.34,14.31-15.27,19.26-35.87,30.51-53.1,44.09-67.52,107.8-112.01,174.33-153.97,42.79-26.99,86.58-52.88,118.81-93.72,30.58-38.75,39.4-82.71,33.11-130.18-3.22-24.3-25.84-37.83-51.47-31.28-23.01,5.88-14.74,24.52-13.53,39.78.05.64.5,1.24.66,1.89,2.2,9.01-.73,11.17-9.19,7.39-17.92-8.02-35.25-17.79-46.58-33.7-10.22-14.35-16.95-12.14-28.25-1.84-16.29,14.84-32.96,29.21-47.87,45.49-16.98,14.1-26.82,35.65-47.67,45.72,12.07-41.33,36.02-76.48,58.53-112.37,4.17-6.65,10.36-12.39,8.98-21.35,6.73-7.42,13.08-15.21,20.23-22.2,69.11-67.53,171.19-108.34,276.78-49.08,33.67,18.9,67.76,38.15,90.13,71.66,2.51,15.06,13.82,25.55,20.06,38.68,16.46,34.65,42.55,64.47,51.61,102.85-10.06.9-12.09-8.5-17.19-13.73-11.51-11.82-19.12-27.43-34.58-35.43l.17.42ZM283.35,324.54c-21.73-60.88-18.47-131.32,16.62-146.05v72.19c9.24-16.39,15.87-27.89,22.24-39.52,13.18-24.04,33.78-34.78,60.8-35.66,33.27-1.08,63.34,8.48,91.75,24.94,14.47,8.38,28.77,17.28,43.98,24.09,18.8,8.43,38.56,11.15,58.38,2.12,12.66-5.77,18.97-11.61,4.09-23.24-18.45-14.42-35.15-31.08-53.51-45.62-43.12-34.15-90.54-59.46-145.67-68.41-43.51-7.07-82.07,1.48-115.56,31.81-37.38,33.85-61.61,75.3-76.54,122.94-8.93,28.5-11.99,58.31-19.44,91.5-13.8-22.46-21.39-42.58-24.86-64.45-.85-5.37,2.65-13.6-5.89-15-7.23-1.18-9.48,6.5-12.8,11.15-16.07,22.51-27.28,47.43-37.01,73.28-19.55,51.98-5.91,94.29,35.35,129.35,36,44.93,76.86,84.98,122.22,120.37,7.77,6.06,16.15,4.89,23.44-2.57,13.26-13.57,23.06-29.18,29.98-46.86,20.64-52.75,16.92-106.06,3.81-159.5-4.84-19.73-5.45-41.25-21.38-56.89Zm1538.97,152.36c28.76-21.81,52.28-47.96,52.18-86-.14-50.32-24.57-92.34-51.97-132.6-1.78-2.61-4.13-5.59-8.16-4.39-4,1.19-4.51,4.76-4.42,8.09.52,20.05-8.26,37.75-14.01,56.21-1.76,5.65-2.86,13.43-10.63,12.16-5.83-.95-4.87-8.62-6.62-13.4-.9-2.45-.92-5.26-1.09-7.93-3.53-54.35-23.82-102.49-53.67-147.33-48.35-72.63-118.66-94.65-199.14-62.33-58.88,23.65-107.69,61.8-153.23,104.87-10.81,10.22-8.38,16.52,4.76,21.51,29.73,11.3,56.66,4.05,82.06-12.17,28.58-18.25,58.93-31.25,92.75-36.39,36.39-5.52,64.61,5.76,83.8,37.58,5.18,8.58,9.4,17.74,14.31,26.49,1.85,3.3,3.67,7.91,8.75,6.08,3.89-1.4,3.4-5.64,2.8-8.71-2.82-14.52,3.4-29.4-2.01-43.82-1.37-3.64-3.05-8.33,1.82-10.52,5.29-2.38,9.09,1.2,11.43,5.48,4.84,8.83,7.99,18.22,10.12,28.19,7.08,33.13-.31,65.27-5.58,97.61-4.3,1.4-5.52,5.06-7.32,8.79-27.25,56.49-34.27,116.23-26.79,177.67,3.51,28.85,14.67,55.45,35.17,77.2,16.66,17.68,23.09,18.46,41.71,2.62,32.63-27.77,64.25-56.65,93.24-88.28,4.4-4.8,10.49-8.8,9.76-16.69Zm-1062.13,808.08c-10.15,2.49-12.32,11.16-15.34,19.39-9.48,25.78-16.56,52.23-22.1,79.1-10.83,52.47-15.07,104.54,10.54,154.54,15.1,29.48,37.17,51.53,70.73,56.6,21.64,3.27,43.91,1.64,66.01-1.08,39.66-4.88,78.63-17.11,119.08-13.65,41.2,3.52,82.43,7.41,123.36,13.22,60.29,8.56,104.83-20.44,119.55-80.02,16.36-66.21,3.24-129.93-17.44-192.67-4.6-13.95-7.36-30.07-22-38.82-.27-7.63-3.27-14.49-7.43-20.5-44.41-64.1-104.42-105.88-182.03-115.74-90.17-11.46-160.5,28.64-218.74,94.38-11.8,13.32-21.11,27.51-24.19,45.27Zm16.38-806.13c-5.02,1.33-6.83-2.1-9.58-3.74-89.63-53.53-181.23-72.45-277.43-16.28-16.63,9.71-25.62,25.94-20.55,43,5.6,18.84,20.54,16.07,35.91,16.3,46.12.69,91.46,4.82,134.42,25.57,35.75,17.27,65.04,44,99.7,62.52,33.81,18.07,69.71,15.37,90.84-7.17,14.47-15.44,15.1-15.34,21.37,5.4,1.53,5.06,2.48,10.37,3.04,15.64,1.97,18.45,9.01,21.98,24.02,10.78,13.89-10.37,20.96-25.69,27.04-41.41,1.58-4.08.2-10.61,6.59-10.88,6.4-.27,9.34,5.64,10.64,10.53,5.33,20.05,11.06,40.37,5.31,61.22-3.51,12.73-.07,17.53,13.21,16.36,23.39-2.05,46.89-2.36,70.23.32,14.78,1.7,17.82-3.95,13.98-17.13-5.09-17.46-2.02-34.54,4.78-50.95,2.17-5.25,1.99-13.32,9.34-14.19,7.6-.89,8.79,7.05,11.59,11.95,5.99,10.48,12.24,20.74,21.57,28.58,6.47,5.44,12.69,14.65,21.92,11.39,10.07-3.55,2.93-14.27,4.93-21.52.71-2.56.75-5.3,1.38-7.89,4.69-19.23,10.12-21.4,24.75-7.84,11.74,10.88,25.46,13.95,40.38,14.69,39.23,1.96,70.55-16.48,100.48-38.83,27.18-20.3,54.25-40.06,88.66-48.09,32.57-7.6,65.08-6.47,97.85-6.11,14.3.15,29.55-1.39,35.33-16.72,5.77-15.27-1.19-28.56-12.97-39.38-25.09-23.04-56.05-35.21-88.49-38.57-62.35-6.45-122,6.03-178.15,35.02-14.14,7.3-26.46,18.88-45.99,23.01,3.4-5.62,4.92-8.41,6.69-11.03,46.46-68.7,116.07-94.36,194.11-103.95,24.05-2.96,35.35-18.69,27.74-41.8-6.21-18.86-18.63-33.61-33.4-46.73-43.78-38.89-94.95-62.83-152.79-67.92-82.74-7.28-142.83,13.75-188.76,86.22-5.13,8.1-14.25,17.44-9.14,27.25,5.42,10.39,18.03,5.58,27.71,6.29,3.99.29,8.04-.19,12.05-.04,10.95.41,18.45.04,9.12,15.49-37.15,61.52-68.56,125.59-77.46,198.33-.64,5.21,3.08,13.54-5.6,14.85-7.15,1.08-9.81-5.97-12.57-11.23-20.38-38.84-33.96-79.91-38.61-123.61-2.3-21.64-7.52-40.76-30.99-48.47-9.92-3.26-14.65-9.93-11.39-19.92,12.81-39.25,20.57-80.44,45.12-115.22,9.22-13.06,16.52-27.47,24.9-41.15,2.12-3.45,5.36-6.82,2.56-10.78-2.63-3.72-7.15-2.48-11.13-2.22-61.26,4.01-122.63,4.26-183.26,18.03-50.12,11.38-97.55,27.06-139.66,56.76-24.88,17.55-46.97,37.75-55.32,68.75-5.2,19.32,3.6,33.21,23.04,36.5,16.47,2.78,33.08,4.92,49.43,8.28,47.38,9.73,89.81,29.64,124.32,64.12,10.04,10.03,20.27,21.24,17.18,37.58Zm726.26,737.5c8.43-12.42,9.75-25.08,8.4-48.45-5.8-100.4-32.2-194.87-80.12-283.33-2.63-4.85-8.82-11.28-3.11-15.79,5.99-4.74,10.84,2.95,14.83,6.78,35.98,34.48,65.82,73.53,88.31,118.22,18.11,35.98,33.29,72.97,42.99,112.12,1.09,4.41,1.32,9.84,7.33,10.67,6.19.86,7.5-4.55,9.58-8.55,5.55-10.69,11.46-21.24,16.26-32.27,18.61-42.84,33.37-87.01,22.26-134.17-9.89-41.95-27.16-81.35-57.92-112.8-26.74-27.35-32.07-59.81-29.1-96.19,2.12-25.92,1.08-52.18-5.01-77.81-3.81-16.03-11.06-29.87-25.09-39.73-4.55-3.2-8.49-7.16-14.22-4.55-6.6,3-4.28,9.41-3.53,14.24,7.6,49.38-5.46,88.74-53.38,111.3-10.32,4.86-8.32,10.5-2.02,16.67,5.24,5.13,10.96,9.76,16.46,14.63,17.92,15.89,38.07,29.73,48.74,52.33,1.91,4.06,5.74,8.91,2.07,12.9-4.26,4.63-8.46-.63-12.37-2.49-41.57-19.75-83.68-37.99-129.08-47.31-28.78-5.9-57.23-14.17-87.11-11.7-4.46.37-10.63-1.07-12.14,4.51-1.24,4.6,2.5,8.58,6.22,11.79,7.56,6.54,15.55,12.72,22.32,20.02,66.32,71.54,121.25,150.35,158.49,241.29,22.16,54.1,35.93,110.4,49.95,167.67ZM463.2,608.66c-9.15-1.67-14.07,2.41-19.22,6.79-26.32,22.37-34.41,50.96-31.14,84.53,3.04,31.19,6.71,62.67-4.62,93.25-7.58,20.46-22.62,36.02-35.69,52.71-37.92,48.44-60.44,100.79-45.72,163.85,7.52,32.23,21.43,61.9,36.15,91.2,2.69,5.36,2.9,15.55,11.23,14.55,7.62-.92,6.91-10.35,8.74-16.46,24.67-82.71,63.15-157.38,126.55-217.52,6.39-6.06,12.99-18.81,21.91-11.93,6.21,4.79-3.81,14.99-8.02,22.06-52.7,88.36-79.82,183.46-75.62,286.76.33,8.04-2.38,17.22,5.75,24.74.99-3.33,1.74-5.84,2.5-8.35,16.61-54.98,27-112.04,52.78-163.98,43.63-87.91,96.27-169.43,169.76-235.99,5.37-4.87,15.52-9.69,11.15-19.03-3.69-7.91-13.27-4.59-20.24-4.23-70.38,3.63-136.35,23.4-199.21,54.68-7.3,3.63-13.59,11.71-25.31,7.01,6.7-20.46,25.23-32.01,36.06-48.93,10.97-17.14,31.99-24.49,44.17-41.61-60.19-24.29-82.41-83.79-61.95-134.07Zm729.55,74.59c35.31,27.28,103.43,36.95,142.73,29.3,53.63-10.43,69.43-33.53,61.01-87.81-3.15-20.32-6.63-22.11-23.79-11.8-43.65,26.23-88.36,49.87-139,59.99-13.02,2.6-25.78,6.45-40.95,10.31Zm-430.57.57c-25.5-6.48-47.61-10.68-68.74-17.79-38.63-13-75.78-29.52-110.05-52.08-15.94-10.49-19.81-8.49-23.68,9.92-9.71,46.29,10.54,81.82,56.32,88.62,49.62,7.37,98.08-.96,146.14-28.67Zm261.63,127.74c3.07-.6,10.22-1.88,17.32-3.39,5.9-1.25,12.35-2.36,12.96-10.07.59-7.39-5.17-10.32-10.7-12.75-11.1-4.9-22.72-7.07-34.94-6.18-8.07.59-14.65,3.62-16.72,11.61-2.25,8.7,5.15,12.99,10.6,17.61,4.98,4.21,11.32,3.03,21.48,3.17Z"/>
  <path class="cls-2" d="m776.57,478.86c3.1-16.33-7.13-27.54-17.18-37.58-34.51-34.47-76.94-54.39-124.32-64.12-16.35-3.36-32.96-5.49-49.43-8.28-19.43-3.28-28.24-17.18-23.04-36.5,8.35-31,30.44-51.2,55.32-68.75,42.11-29.7,89.53-45.38,139.66-56.76,60.63-13.77,122-14.02,183.26-18.03,3.98-.26,8.5-1.5,11.13,2.22,2.8,3.96-.44,7.32-2.56,10.78-8.37,13.67-15.68,28.08-24.9,41.15-24.56,34.79-32.31,75.97-45.12,115.22-3.26,9.99,1.47,16.66,11.39,19.92,23.48,7.71,28.69,26.84,30.99,48.47,4.66,43.7,18.23,84.76,38.61,123.61,2.76,5.25,5.42,12.31,12.57,11.23,8.68-1.31,4.97-9.64,5.6-14.85,8.9-72.74,40.31-136.82,77.46-198.33,9.33-15.45,1.84-15.08-9.12-15.49-4.01-.15-8.06.33-12.05.04-9.68-.71-22.29,4.1-27.71-6.29-5.12-9.81,4-19.16,9.14-27.25,45.92-72.47,106.01-93.5,188.76-86.22,57.84,5.09,109.01,29.03,152.79,67.92,14.77,13.12,27.19,27.87,33.4,46.73,7.61,23.11-3.69,38.84-27.74,41.8-78.04,9.59-147.66,35.25-194.11,103.95-1.77,2.62-3.29,5.41-6.69,11.03,19.53-4.13,31.84-15.71,45.99-23.01,56.15-28.99,115.8-41.47,178.15-35.02,32.43,3.36,63.39,15.52,88.49,38.57,11.78,10.82,18.74,24.11,12.97,39.38-5.79,15.33-21.03,16.87-35.33,16.72-32.77-.35-65.28-1.49-97.85,6.11-34.41,8.03-61.49,27.79-88.66,48.09-29.92,22.35-61.25,40.79-100.48,38.83-14.91-.74-28.63-3.81-40.38-14.69-14.63-13.56-20.06-11.39-24.75,7.84-.63,2.59-.67,5.33-1.38,7.89-2.01,7.25,5.14,17.97-4.93,21.52-9.24,3.25-15.45-5.95-21.92-11.39-9.33-7.84-15.59-18.1-21.57-28.58-2.8-4.9-4-12.84-11.59-11.95-7.35.86-7.17,8.94-9.34,14.19-6.8,16.42-9.86,33.49-4.78,50.95,3.84,13.17.8,18.83-13.98,17.13-23.34-2.69-46.83-2.38-70.23-.32-13.28,1.17-16.72-3.63-13.21-16.36,5.75-20.86.01-41.18-5.31-61.22-1.3-4.89-4.25-10.8-10.64-10.53-6.39.27-5.01,6.8-6.59,10.88-6.08,15.72-13.15,31.04-27.04,41.41-15.01,11.2-22.05,7.67-24.02-10.78-.56-5.27-1.51-10.58-3.04-15.64-6.27-20.75-6.89-20.84-21.37-5.4-21.12,22.53-57.02,25.24-90.84,7.17-34.66-18.52-63.95-45.25-99.7-62.52-42.96-20.75-88.3-24.88-134.42-25.57-15.36-.23-30.31,2.54-35.91-16.3-5.07-17.06,3.92-33.29,20.55-43,96.19-56.17,187.8-37.25,277.43,16.28,2.75,1.64,4.56,5.06,9.58,3.74Z"/>
  <path class="cls-3" d="m510.94,1528.19c-29.99-82.22-19.22-166.16-5.77-248.71,22.49-137.96,74.91-265.05,154.65-380.15,34.14-49.29,75.09-92.61,124.84-126.77,126.94-87.16,270.78-83.86,394.46,8.09,84.52,62.83,142.47,146.04,187.07,239.94,58.44,123.04,94.11,251.79,98.23,388.49,1.03,34.31-3.16,68.16-11.24,101.56-1.78,7.35-4.07,14.1-9.24,19.69-4.64.34-9.31.44-13.91,1.05-30.86,4.09-37.09.08-49.78-28.46-13.62-30.61-13.35-63.2-15.33-95.54-.72-11.69,2.04-24.27-8.81-33.26.49-6.72.97-13.44,1.46-20.15,4.7-4.59,2.71-9.82,1.45-15-16.59-68.34-46.81-128.96-97.51-179.02-34.07-33.65-72.83-60.75-112.71-86.48-16.52-10.66-31.01-22.03-37.42-45.71,42.26,23.9,78.6,50.97,119.63,69.77.96.49,1.9,1,2.85,1.5-.51-.94-1.02-1.88-1.54-2.82-19.78-30.56-47.15-54.7-70.47-82.86,23.01,4.85,40.26,22.39,64.96,27.52-10.71-23.62-34.32-35.4-42.03-59.39,10.65.25,15.03,11.87,25.65,8.83-.2-18.2-20.9-28.08-18.84-46.78,15.45,8,23.06,23.61,34.58,35.43,5.09,5.23,7.13,14.63,17.19,13.73,0,0,.12-.44.12-.44-3.61,2.85-.7,5.18.6,7.64,23.82,33.36,38.38,71.53,56.26,108,14.22,29,28.67,57.99,54.66,81.71,5.09-20.81-5.71-35.19-10.8-50.52-28.85-86.84-69.72-167.67-125.7-240.23-13.49-17.49-23.99-38.93-46.8-47.69-22.37-33.51-56.46-52.76-90.13-71.66-105.59-59.26-207.67-18.45-276.78,49.08-7.15,6.99-13.51,14.78-20.23,22.2-10.39,1.74-15.12,10.58-21,17.5-76.94,90.5-127.2,195.22-163.07,307.51-1.23,3.85-6.26,9.04.18,12.15,6.18,2.99,9.83-2.61,13-6.72,14.33-18.55,26.25-38.51,36.79-59.52,22.35-44.54,39.17-91.8,65.85-134.21.39-1.11.71-2.23.94-3.38l-.21.38c20.85-10.07,30.69-31.61,47.67-45.72,8.92,9.88-1.25,16.43-4.51,23.91-4.03,9.26-13.14,16.16-14.18,26.98,8.88,3.95,13.75-7.06,22.48-2.9-2.03,8.62-8.11,14.57-13.24,21.11-9.77,12.45-24.51,20.65-30.82,36.06-.5.83-1,1.65-1.51,2.47.84-.49,1.67-.98,2.51-1.48,7.66.26,13.66-4.25,20.36-6.84,13.45-5.2,23.49-17.48,38.86-18.57.44.51.88,1.02,1.33,1.51-4.95,5.33-10,10.59-14.85,16.01-18.01,20.15-38.05,38.65-51.09,62.84-1.18,1.04-3.25,1.96-.79,3.63.25.17,1.61-1.27,2.45-1.97,41.97-20.01,78.24-50.43,125.83-72.39-11.96,26.46-28.79,38.93-47.12,50.13-80.36,49.1-148.12,109.9-183.09,200.37-7.7,19.92-18.72,39.51-13.17,62.38-2.17,9.11-4.35,18.23-6.52,27.35-6.22,7.32-5.62,16.18-5.31,24.83.96,26.77-.69,53.41-5.99,79.61-11.34,56.06-20.39,62.32-75.4,54.37Z"/>
  <path class="cls-3" d="m760.19,1284.98c3.08-17.76,12.38-31.94,24.19-45.27,58.25-65.74,128.57-105.85,218.74-94.38,77.6,9.86,137.62,51.64,182.03,115.74,4.16,6.01,7.16,12.87,7.42,20.5-6.89,3.6-1.77,7.3-.47,11.47,15.2,48.68,21.37,97.64,3.49,147.14-23.48,65.03-111.1,79.3-142.77,47.59,18.03-5.26,35.47-10.35,56.95-16.62-35.18-15.99-67.28-14.31-99.08-6.44-39.5,9.79-78.12,23.42-117.88,31.76-31.68,6.64-65.08,12.18-94.28-10.27-4.35-3.34-13.23-4.44-11.04-12.16,1.83-6.46,9.24-2.92,14.15-3.87,21.33-4.11,42.99-7.28,61.23-22-13.92-5.03-27.26-4.9-40.64-5.35-47.96-1.6-79.83-41.15-72.18-88.67,3.71-23,6.77-46.11,10.12-69.18Zm215.78,8.21c0-.1,0-.19,0-.29,21.35,0,42.71.2,64.06-.09,9.94-.14,18.47-3.71,22.21-13.9,3.46-9.4-.89-16.46-7.09-23.37-28.59-31.88-66-30.89-103.67-27.58-19.96,1.75-36.99,11.14-50.36,26.14-5.96,6.7-14.64,13.32-9.36,24.25,5.16,10.66,14.32,15.07,26.14,14.91,19.35-.25,38.7-.07,58.06-.07Z"/>
  <path class="cls-3" d="m1676.55,315.58c5.27-32.33,12.66-64.48,5.58-97.61-2.13-9.97-5.28-19.36-10.12-28.19-2.35-4.28-6.15-7.86-11.43-5.48-4.86,2.19-3.18,6.88-1.82,10.52,5.41,14.41-.81,29.3,2.01,43.82.6,3.07,1.09,7.31-2.8,8.71-5.07,1.83-6.9-2.78-8.75-6.08-4.91-8.75-9.13-17.91-14.31-26.49-19.19-31.82-47.41-43.1-83.8-37.58-33.82,5.13-64.17,18.14-92.75,36.39-25.41,16.22-52.33,23.48-82.06,12.17-13.14-4.99-15.57-11.29-4.76-21.51,45.54-43.07,94.34-81.22,153.23-104.87,80.48-32.32,150.79-10.29,199.14,62.33,29.85,44.84,50.14,92.98,53.67,147.33.17,2.66.19,5.48,1.09,7.93,1.75,4.78.79,12.45,6.62,13.4,7.77,1.27,8.87-6.51,10.63-12.16,5.75-18.46,14.53-36.16,14.01-56.21-.09-3.33.42-6.89,4.42-8.09,4.03-1.2,6.38,1.78,8.16,4.39,27.4,40.26,51.84,82.28,51.97,132.6.1,38.05-23.42,64.2-52.18,86.01-8.55-.21-15.19,4.35-22.03,8.63-19.83,12.39-39.66,24.78-59.69,36.86-11.13,6.71-19.39,4.96-25.94-7.71-25.98-50.27-41.83-102.32-33.42-159.84,1.91-13.08,2.16-26.82-4.68-39.26Z"/>
  <path class="cls-3" d="m125.28,469.98c-41.26-35.06-54.91-77.38-35.35-129.35,9.73-25.85,20.94-50.77,37.01-73.28,3.32-4.64,5.57-12.33,12.8-11.15,8.54,1.39,5.04,9.63,5.89,15,3.47,21.87,11.06,41.99,24.86,64.45,7.45-33.2,10.51-63,19.44-91.5,14.93-47.64,39.16-89.09,76.54-122.94,33.5-30.33,72.06-38.88,115.56-31.81,55.12,8.96,102.54,34.26,145.67,68.41,18.36,14.54,35.06,31.19,53.51,45.62,14.88,11.64,8.57,17.47-4.09,23.24-19.81,9.03-39.58,6.3-58.38-2.12-15.21-6.82-29.51-15.71-43.98-24.09-28.41-16.46-58.48-26.02-91.75-24.94-27.01.88-47.62,11.62-60.8,35.66-6.38,11.63-13,23.13-22.24,39.52v-72.19c-35.08,14.72-38.34,85.16-16.62,146.05-10.04,15.97-4.45,33.64-4.77,50.43-.98,50.96-11.9,98.82-38.33,142.91-6.45,10.77-11.82,15.01-23.18,5.92-10.36-8.3-21.4-16.35-33.33-21.95-20.17-9.48-35.47-27.76-58.46-31.87Z"/>
  <path class="cls-2" d="m1502.82,1216.36c-14.02-57.28-27.79-113.57-49.95-167.67-37.24-90.94-92.17-169.75-158.49-241.29-6.77-7.3-14.76-13.48-22.32-20.02-3.71-3.21-7.46-7.19-6.22-11.79,1.51-5.58,7.69-4.15,12.14-4.51,29.88-2.47,58.34,5.8,87.11,11.7,45.4,9.32,87.51,27.55,129.08,47.31,3.91,1.86,8.11,7.12,12.37,2.49,3.67-4-.16-8.85-2.07-12.9-10.66-22.6-30.82-36.44-48.74-52.33-5.49-4.87-11.22-9.5-16.46-14.63-6.3-6.17-8.3-11.82,2.02-16.67,47.92-22.55,60.99-61.92,53.38-111.3-.74-4.82-3.06-11.23,3.53-14.24,5.73-2.61,9.66,1.35,14.22,4.55,14.02,9.85,21.28,23.7,25.09,39.73,6.08,25.63,7.12,51.89,5.01,77.81-2.97,36.37,2.35,68.83,29.1,96.19,30.75,31.45,48.03,70.85,57.92,112.8,11.12,47.16-3.64,91.33-22.26,134.17-4.79,11.03-10.71,21.58-16.26,32.27-2.07,4-3.38,9.41-9.58,8.55-6.01-.83-6.24-6.26-7.33-10.67-9.7-39.16-24.88-76.14-42.99-112.12-22.49-44.68-52.33-83.73-88.31-118.22-4-3.83-8.84-11.52-14.83-6.78-5.71,4.52.48,10.95,3.11,15.79,47.92,88.46,74.32,182.93,80.12,283.33,1.35,23.37.03,36.04-8.4,48.45Z"/>
  <path class="cls-2" d="m463.2,608.66c-20.46,50.28,1.77,109.79,61.95,134.07-12.19,17.12-33.2,24.46-44.17,41.61-10.83,16.92-29.36,28.47-36.06,48.93,11.71,4.7,18.01-3.38,25.31-7.01,62.86-31.28,128.83-51.05,199.21-54.68,6.97-.36,16.55-3.67,20.24,4.23,4.36,9.34-5.78,14.17-11.15,19.03-73.48,66.56-126.13,148.07-169.76,235.99-25.78,51.95-36.17,109-52.78,163.98-.76,2.51-1.5,5.02-2.5,8.35-8.13-7.51-5.42-16.69-5.75-24.74-4.2-103.3,22.92-198.4,75.62-286.76,4.22-7.07,14.24-17.27,8.02-22.06-8.92-6.88-15.53,5.87-21.91,11.93-63.4,60.14-101.88,134.81-126.55,217.52-1.82,6.11-1.11,15.55-8.74,16.46-8.33,1-8.54-9.19-11.23-14.55-14.72-29.3-28.63-58.97-36.15-91.2-14.71-63.05,7.8-115.4,45.72-163.85,13.06-16.69,28.11-32.25,35.69-52.71,11.33-30.57,7.65-62.06,4.62-93.25-3.27-33.56,4.82-62.16,31.14-84.53,5.15-4.38,10.07-8.46,19.22-6.79Z"/>
  <path class="cls-1" d="m760.19,1284.98c-3.35,23.06-6.41,46.17-10.12,69.18-7.66,47.52,24.21,87.07,72.18,88.67,13.38.45,26.72.31,40.64,5.35-18.24,14.72-39.9,17.89-61.23,22-4.91.94-12.32-2.59-14.15,3.87-2.19,7.72,6.69,8.82,11.04,12.16,29.2,22.45,62.59,16.91,94.28,10.27,39.76-8.33,78.38-21.97,117.88-31.76,31.79-7.88,63.9-9.55,99.08,6.44-21.47,6.27-38.91,11.36-56.95,16.62,31.67,31.71,119.29,17.44,142.77-47.59,17.87-49.5,11.7-98.46-3.49-147.14-1.3-4.17-6.41-7.86.47-11.47,14.64,8.75,17.41,24.87,22.01,38.82,20.68,62.74,33.8,126.46,17.44,192.67-14.72,59.58-59.26,88.58-119.55,80.02-40.92-5.81-82.16-9.7-123.36-13.22-40.45-3.46-79.42,8.77-119.08,13.65-22.09,2.72-44.37,4.35-66.01,1.08-33.56-5.07-55.63-27.12-70.73-56.6-25.61-50-21.37-102.07-10.54-154.54,5.54-26.86,12.62-53.31,22.1-79.1,3.03-8.23,5.2-16.9,15.34-19.39Z"/>
  <path class="cls-1" d="m1191.58,943.53c-2.06,18.7,18.64,28.59,18.84,46.78-10.62,3.04-15-8.58-25.65-8.83,7.71,23.99,31.32,35.77,42.03,59.39-24.7-5.13-41.95-22.67-64.96-27.52,23.31,28.15,50.69,52.3,70.47,82.86l-1.32,1.32c-41.02-18.81-77.36-45.88-119.62-69.78,6.41,23.68,20.9,35.05,37.42,45.71,39.88,25.73,78.64,52.84,112.71,86.48,50.7,50.06,80.92,110.68,97.51,179.02,1.26,5.18,3.24,10.41-1.45,15-10.05-2.94-11.8-12.56-14.76-20.21-24.59-63.61-70.57-108.79-123.51-149.32-47.4-36.28-100.05-64.34-148.17-99.37-61.95-45.09-86.75-104.43-72.56-179.95,3.47-18.49,23.92-29.86,47.58-25.82,15.82,2.7,19.33,11.34,14.05,34.56-1.16,5.13-4.32,11.2.41,15.11,5,4.13,9.95-1.09,14.49-3.36,16.42-8.22,30.02-20.08,41.83-33.95,5.47-6.43,11.16-10.07,18.64-3.87,18.92,15.68,40.6,28.66,51.91,51.95,1.43,1.4,2.86,2.8,4.28,4.21l-.17-.42Z"/>
  <path class="cls-1" d="m784.65,1019.52c-15.37,1.09-25.4,13.37-38.86,18.57-6.71,2.59-12.71,7.1-20.36,6.84l-1.01-1c6.32-15.4,21.06-23.59,30.82-36.05,5.13-6.54,11.21-12.49,13.24-21.11-8.73-4.15-13.6,6.86-22.48,2.9,1.05-10.81,10.15-17.71,14.18-26.98,3.26-7.49,13.43-14.03,4.51-23.91,14.91-16.28,31.58-30.65,47.87-45.49,11.3-10.3,18.02-12.5,28.25,1.84,11.34,15.91,28.66,25.68,46.58,33.7,8.47,3.79,11.39,1.62,9.19-7.39-.16-.65-.61-1.25-.66-1.89-1.2-15.26-9.47-33.9,13.53-39.78,25.63-6.55,48.25,6.97,51.47,31.28,6.29,47.47-2.54,91.44-33.11,130.18-32.23,40.84-76.03,66.73-118.81,93.72-66.52,41.96-130.24,86.46-174.33,153.97-11.25,17.23-16.2,37.83-30.51,53.1-5.56-22.87,5.47-42.46,13.17-62.38,34.96-90.47,102.72-151.27,183.09-200.37,18.33-11.2,35.16-23.67,47.12-50.13-47.59,21.96-83.86,52.38-125.83,72.39-.54-.57-1.09-1.13-1.67-1.67,13.05-24.18,33.09-42.68,51.1-62.83,4.85-5.43,9.89-10.68,14.84-16.02,1.6-.91,3.2-1.81,4.81-2.71-.44-.46-1.08-1.39-1.28-1.3-1.67.73-3.25,1.65-4.86,2.51Z"/>
  <path class="cls-1" d="m1356.09,1374.11c10.85,8.99,8.09,21.57,8.81,33.26,1.99,32.34,1.72,64.93,15.33,95.54,12.69,28.54,18.92,32.55,49.78,28.46,4.6-.61,9.27-.71,13.91-1.05-2.32,25.94-24.22,49.68-52.12,56.49-27.05,6.6-59.74-8.02-76.43-32.95-19.28-28.79-24.51-61.6-29.35-94.75-7.14-48.82-14.83-97.57-21.76-146.42-.96-6.8-4.71-16.46,2.34-20.5,7.17-4.11,12.87,4.28,18.68,8.47,28.04,20.21,48.15,48.05,70.81,73.44Z"/>
  <path class="cls-1" d="m510.94,1528.19c55,7.95,64.06,1.7,75.4-54.37,5.3-26.21,6.95-52.84,5.99-79.61-.31-8.65-.91-17.51,5.31-24.83,10.19-.67,13.65-9.33,19.2-15.77,18.75-21.73,37.55-43.5,62.28-58.87,3.16-1.96,7.75-3.59,11.07-2.8,3.37.8,2.52,5.65,1.92,8.78-13.4,70.55-16.2,142.83-35.62,212.43-13.34,47.81-39.75,73.51-79.25,74.54-33.72.88-60.24-22.92-66.31-59.49Z"/>
  <path class="cls-1" d="m1676.55,315.58c6.84,12.45,6.59,26.18,4.68,39.26-8.41,57.52,7.44,109.57,33.42,159.84,6.55,12.67,14.81,14.42,25.94,7.71,20.02-12.08,39.86-24.47,59.69-36.86,6.84-4.28,13.48-8.84,22.03-8.63.73,7.88-5.36,11.88-9.76,16.68-28.99,31.63-60.61,60.51-93.24,88.28-18.62,15.84-25.04,15.05-41.71-2.62-20.5-21.75-31.66-48.35-35.17-77.2-7.48-61.44-.46-121.19,26.79-177.67,1.8-3.73,3.02-7.39,7.32-8.79Z"/>
  <path class="cls-1" d="m125.28,469.98c22.98,4.11,38.28,22.39,58.46,31.87,11.94,5.61,22.97,13.66,33.33,21.95,11.36,9.09,16.73,4.84,23.18-5.92,26.43-44.09,37.35-91.95,38.33-142.91.32-16.79-5.27-34.46,4.77-50.43,15.93,15.64,16.54,37.15,21.38,56.89,13.11,53.43,16.83,106.75-3.81,159.5-6.92,17.67-16.71,33.29-29.98,46.86-7.29,7.46-15.67,8.63-23.44,2.57-45.36-35.39-86.22-75.44-122.22-120.37Z"/>
  <path class="cls-4" d="m1192.75,683.24c15.17-3.86,27.93-7.71,40.95-10.31,50.64-10.12,95.35-33.77,139-59.99,17.16-10.31,20.64-8.52,23.79,11.8,8.42,54.28-7.38,77.37-61.01,87.81-39.3,7.65-107.42-2.02-142.73-29.3Z"/>
  <path class="cls-4" d="m762.18,683.81c-48.06,27.72-96.52,36.04-146.14,28.67-45.78-6.8-66.03-42.33-56.32-88.62,3.86-18.42,7.74-20.42,23.68-9.92,34.27,22.56,71.42,39.08,110.05,52.08,21.13,7.11,43.24,11.31,68.74,17.79Z"/>
  <path class="cls-1" d="m1171.67,851.16c22.81,8.75,33.31,30.2,46.8,47.69,55.98,72.55,96.85,153.39,125.7,240.23,5.09,15.33,15.89,29.72,10.8,50.52-25.99-23.72-40.44-52.71-54.66-81.71-17.88-36.46-32.44-74.63-56.26-108,4.49-2.92,4.47-5.48-.6-7.64,0,0-.12.44-.12.44-9.05-38.37-35.14-68.19-51.6-102.85-6.24-13.13-17.55-23.62-20.06-38.68Z"/>
  <path class="cls-1" d="m716.28,987.5c-26.68,42.41-43.5,89.67-65.85,134.21-10.54,21.01-22.46,40.97-36.79,59.52-3.17,4.11-6.82,9.7-13,6.72-6.44-3.11-1.41-8.3-.18-12.15,35.87-112.29,86.13-217.01,163.07-307.51,5.88-6.92,10.61-15.76,21-17.5,1.38,8.96-4.81,14.69-8.99,21.35-22.51,35.89-46.46,71.04-58.53,112.37,0,0,.21-.38.21-.38-.61.21-1.77.51-1.75.63.14.94.51,1.84.81,2.75Z"/>
  <path class="cls-1" d="m1023.81,811.55c-10.16-.14-16.5,1.04-21.48-3.17-5.45-4.61-12.84-8.9-10.6-17.61,2.06-7.99,8.65-11.02,16.72-11.61,12.23-.89,23.84,1.28,34.94,6.18,5.52,2.44,11.28,5.36,10.7,12.75-.61,7.7-7.06,8.81-12.96,10.07-7.1,1.51-14.25,2.79-17.32,3.39Z"/>
  <path class="cls-3" d="m1191.75,943.95c-1.43-1.4-2.86-2.8-4.28-4.21,1.43,1.4,2.86,2.8,4.28,4.21Z"/>
  <path class="cls-5" d="m1243.45,992.25c5.08,2.16,5.09,4.73.6,7.64-1.3-2.46-4.21-4.79-.6-7.64Z"/>
  <path class="cls-5" d="m716.28,987.5c-.3-.91-.66-1.82-.81-2.75-.02-.12,1.14-.42,1.75-.63-.24,1.15-.55,2.28-.94,3.38Z"/>
  <path class="cls-1" d="m725.43,1044.93c-.84.49-1.67.98-2.51,1.48.51-.82,1.01-1.64,1.51-2.47,0,0,1,.99,1,.99Z"/>
  <path class="cls-1" d="m1232.31,1096.2c.51.94,1.02,1.88,1.54,2.82-.95-.5-1.89-1.01-2.85-1.5,0,0,1.31-1.31,1.31-1.31Z"/>
  <path class="cls-1" d="m721.71,1101.54c-.84.7-2.19,2.14-2.45,1.97-2.46-1.67-.39-2.59.79-3.63.56.53,1.12,1.09,1.66,1.66Z"/>
  <path class="cls-5" d="m975.97,1293.19c-19.35,0-38.71-.18-58.06.07-11.82.15-20.99-4.25-26.14-14.91-5.29-10.93,3.39-17.55,9.36-24.25,13.36-15.01,30.39-24.39,50.36-26.14,37.67-3.3,75.08-4.3,103.67,27.58,6.2,6.91,10.55,13.97,7.09,23.37-3.75,10.19-12.27,13.77-22.21,13.9-21.35.29-42.71.09-64.06.09,0,.1,0,.19,0,.29Z"/>
  <path class="cls-3" d="m784.65,1019.52c1.61-.86,3.19-1.78,4.86-2.51.2-.09.84.84,1.28,1.3-1.61.9-3.21,1.8-4.81,2.71-.45-.49-.89-.99-1.33-1.51Z"/>
</svg>